<mxfile host="app.diagrams.net" agent="Mozilla/5.0 (X11; Ubuntu; Linux x86_64; rv:141.0) Gecko/20100101 Firefox/141.0" version="28.1.0" pages="2">
  <diagram name="Page-1" id="RPrAftKhpfh2Gjc6CZIC">
    <mxGraphModel dx="683" dy="489" grid="1" gridSize="10" guides="1" tooltips="1" connect="1" arrows="1" fold="1" page="1" pageScale="1" pageWidth="850" pageHeight="1100" math="0" shadow="0">
      <root>
        <mxCell id="0" />
        <mxCell id="1" parent="0" />
        <mxCell id="IfxmSwvC24aHGd51J0QE-19" style="edgeStyle=orthogonalEdgeStyle;rounded=0;orthogonalLoop=1;jettySize=auto;html=1;exitX=1;exitY=0.5;exitDx=0;exitDy=0;entryX=1;entryY=0.5;entryDx=0;entryDy=0;strokeColor=#878787;endArrow=none;endFill=0;" edge="1" parent="1" source="IfxmSwvC24aHGd51J0QE-1" target="IfxmSwvC24aHGd51J0QE-8">
          <mxGeometry relative="1" as="geometry" />
        </mxCell>
        <mxCell id="IfxmSwvC24aHGd51J0QE-24" style="edgeStyle=orthogonalEdgeStyle;rounded=0;orthogonalLoop=1;jettySize=auto;html=1;exitX=1;exitY=0.25;exitDx=0;exitDy=0;entryX=0.999;entryY=0.947;entryDx=0;entryDy=0;entryPerimeter=0;strokeColor=default;endArrow=none;endFill=0;" edge="1" parent="1" source="IfxmSwvC24aHGd51J0QE-1" target="IfxmSwvC24aHGd51J0QE-8">
          <mxGeometry relative="1" as="geometry">
            <mxPoint x="610" y="690" as="targetPoint" />
            <Array as="points">
              <mxPoint x="550" y="366" />
              <mxPoint x="600" y="366" />
              <mxPoint x="600" y="760" />
              <mxPoint x="550" y="760" />
              <mxPoint x="550" y="767" />
            </Array>
          </mxGeometry>
        </mxCell>
        <mxCell id="IfxmSwvC24aHGd51J0QE-1" value="&lt;div&gt;Battery&lt;/div&gt;" style="rounded=0;whiteSpace=wrap;html=1;" vertex="1" parent="1">
          <mxGeometry x="280" y="360" width="270" height="60" as="geometry" />
        </mxCell>
        <mxCell id="IfxmSwvC24aHGd51J0QE-2" value="+" style="text;strokeColor=none;fillColor=none;align=left;verticalAlign=middle;spacingLeft=4;spacingRight=4;overflow=hidden;points=[[0,0.5],[1,0.5]];portConstraint=eastwest;rotatable=0;whiteSpace=wrap;html=1;" vertex="1" parent="1">
          <mxGeometry x="280" y="390" width="80" height="30" as="geometry" />
        </mxCell>
        <mxCell id="IfxmSwvC24aHGd51J0QE-3" value="+" style="text;strokeColor=none;fillColor=none;align=left;verticalAlign=middle;spacingLeft=4;spacingRight=4;overflow=hidden;points=[[0,0.5],[1,0.5]];portConstraint=eastwest;rotatable=0;whiteSpace=wrap;html=1;" vertex="1" parent="1">
          <mxGeometry x="530" y="390" width="80" height="30" as="geometry" />
        </mxCell>
        <mxCell id="IfxmSwvC24aHGd51J0QE-4" value="&lt;div&gt;_&lt;/div&gt;&lt;div&gt;&lt;br&gt;&lt;/div&gt;" style="text;strokeColor=none;fillColor=none;align=left;verticalAlign=middle;spacingLeft=4;spacingRight=4;overflow=hidden;points=[[0,0.5],[1,0.5]];portConstraint=eastwest;rotatable=0;whiteSpace=wrap;html=1;" vertex="1" parent="1">
          <mxGeometry x="280" y="350" width="80" height="30" as="geometry" />
        </mxCell>
        <mxCell id="IfxmSwvC24aHGd51J0QE-30" style="edgeStyle=orthogonalEdgeStyle;rounded=0;orthogonalLoop=1;jettySize=auto;html=1;entryX=0.5;entryY=0;entryDx=0;entryDy=0;endArrow=none;endFill=0;strokeColor=#878787;" edge="1" parent="1" source="IfxmSwvC24aHGd51J0QE-6" target="IfxmSwvC24aHGd51J0QE-16">
          <mxGeometry relative="1" as="geometry">
            <Array as="points">
              <mxPoint x="260" y="385" />
              <mxPoint x="260" y="520" />
            </Array>
          </mxGeometry>
        </mxCell>
        <mxCell id="IfxmSwvC24aHGd51J0QE-6" value="&lt;div&gt;com&lt;/div&gt;" style="text;strokeColor=none;fillColor=none;align=left;verticalAlign=middle;spacingLeft=4;spacingRight=4;overflow=hidden;points=[[0,0.5],[1,0.5]];portConstraint=eastwest;rotatable=0;whiteSpace=wrap;html=1;" vertex="1" parent="1">
          <mxGeometry x="280" y="370" width="80" height="30" as="geometry" />
        </mxCell>
        <mxCell id="IfxmSwvC24aHGd51J0QE-20" style="edgeStyle=orthogonalEdgeStyle;rounded=0;orthogonalLoop=1;jettySize=auto;html=1;exitX=1;exitY=0.338;exitDx=0;exitDy=0;entryX=0.13;entryY=1;entryDx=0;entryDy=0;entryPerimeter=0;exitPerimeter=0;strokeColor=light-dark(#CC0000,#CC0000);endArrow=none;endFill=0;" edge="1" parent="1" target="IfxmSwvC24aHGd51J0QE-3">
          <mxGeometry relative="1" as="geometry">
            <mxPoint x="550.1428571428571" y="470" as="targetPoint" />
            <mxPoint x="540" y="710.1399999999999" as="sourcePoint" />
            <Array as="points">
              <mxPoint x="540" y="716" />
              <mxPoint x="560" y="716" />
              <mxPoint x="560" y="420" />
            </Array>
          </mxGeometry>
        </mxCell>
        <mxCell id="IfxmSwvC24aHGd51J0QE-8" value="&lt;div&gt;Battery&lt;/div&gt;" style="rounded=0;whiteSpace=wrap;html=1;" vertex="1" parent="1">
          <mxGeometry x="280" y="710" width="270" height="60" as="geometry" />
        </mxCell>
        <mxCell id="IfxmSwvC24aHGd51J0QE-9" value="_" style="text;strokeColor=none;fillColor=none;align=left;verticalAlign=middle;spacingLeft=4;spacingRight=4;overflow=hidden;points=[[0,0.5],[1,0.5]];portConstraint=eastwest;rotatable=0;whiteSpace=wrap;html=1;" vertex="1" parent="1">
          <mxGeometry x="280" y="740" width="80" height="30" as="geometry" />
        </mxCell>
        <mxCell id="IfxmSwvC24aHGd51J0QE-10" value="_" style="text;strokeColor=none;fillColor=none;align=left;verticalAlign=middle;spacingLeft=4;spacingRight=4;overflow=hidden;points=[[0,0.5],[1,0.5]];portConstraint=eastwest;rotatable=0;whiteSpace=wrap;html=1;" vertex="1" parent="1">
          <mxGeometry x="530" y="740" width="80" height="30" as="geometry" />
        </mxCell>
        <mxCell id="IfxmSwvC24aHGd51J0QE-11" value="&lt;div&gt;&lt;br&gt;&lt;/div&gt;&lt;div&gt;+&lt;/div&gt;&lt;div&gt;&lt;br&gt;&lt;/div&gt;&lt;div&gt;&lt;br&gt;&lt;/div&gt;&lt;div&gt;&lt;br&gt;&lt;/div&gt;" style="text;strokeColor=none;fillColor=none;align=left;verticalAlign=middle;spacingLeft=4;spacingRight=4;overflow=hidden;points=[[0,0.5],[1,0.5]];portConstraint=eastwest;rotatable=0;whiteSpace=wrap;html=1;" vertex="1" parent="1">
          <mxGeometry x="280" y="690" width="80" height="30" as="geometry" />
        </mxCell>
        <mxCell id="IfxmSwvC24aHGd51J0QE-13" value="&lt;div&gt;com&lt;/div&gt;" style="text;strokeColor=none;fillColor=none;align=left;verticalAlign=middle;spacingLeft=4;spacingRight=4;overflow=hidden;points=[[0,0.5],[1,0.5]];portConstraint=eastwest;rotatable=0;whiteSpace=wrap;html=1;" vertex="1" parent="1">
          <mxGeometry x="280" y="720" width="80" height="30" as="geometry" />
        </mxCell>
        <mxCell id="IfxmSwvC24aHGd51J0QE-14" value="&lt;div&gt;com&lt;/div&gt;" style="text;strokeColor=none;fillColor=none;align=left;verticalAlign=middle;spacingLeft=4;spacingRight=4;overflow=hidden;points=[[0,0.5],[1,0.5]];portConstraint=eastwest;rotatable=0;whiteSpace=wrap;html=1;" vertex="1" parent="1">
          <mxGeometry x="520" y="726.5" width="80" height="17" as="geometry" />
        </mxCell>
        <mxCell id="IfxmSwvC24aHGd51J0QE-72" style="edgeStyle=orthogonalEdgeStyle;rounded=0;orthogonalLoop=1;jettySize=auto;html=1;entryX=0.25;entryY=0;entryDx=0;entryDy=0;endArrow=none;endFill=0;" edge="1" parent="1" source="IfxmSwvC24aHGd51J0QE-16" target="IfxmSwvC24aHGd51J0QE-31">
          <mxGeometry relative="1" as="geometry">
            <Array as="points">
              <mxPoint x="300" y="510" />
              <mxPoint x="420" y="510" />
              <mxPoint x="420" y="520" />
            </Array>
          </mxGeometry>
        </mxCell>
        <mxCell id="IfxmSwvC24aHGd51J0QE-16" value="BMS" style="whiteSpace=wrap;html=1;aspect=fixed;fillColor=#fff2cc;strokeColor=#d6b656;" vertex="1" parent="1">
          <mxGeometry x="240" y="520" width="80" height="80" as="geometry" />
        </mxCell>
        <mxCell id="IfxmSwvC24aHGd51J0QE-23" value="+" style="text;strokeColor=none;fillColor=none;align=left;verticalAlign=middle;spacingLeft=4;spacingRight=4;overflow=hidden;points=[[0,0.5],[1,0.5]];portConstraint=eastwest;rotatable=0;whiteSpace=wrap;html=1;" vertex="1" parent="1">
          <mxGeometry x="530" y="700" width="80" height="30" as="geometry" />
        </mxCell>
        <mxCell id="IfxmSwvC24aHGd51J0QE-25" value="&lt;div&gt;_&lt;/div&gt;&lt;div&gt;&lt;br&gt;&lt;/div&gt;" style="text;strokeColor=none;fillColor=none;align=left;verticalAlign=middle;spacingLeft=4;spacingRight=4;overflow=hidden;points=[[0,0.5],[1,0.5]];portConstraint=eastwest;rotatable=0;whiteSpace=wrap;html=1;" vertex="1" parent="1">
          <mxGeometry x="530" y="350" width="80" height="30" as="geometry" />
        </mxCell>
        <mxCell id="IfxmSwvC24aHGd51J0QE-27" style="edgeStyle=orthogonalEdgeStyle;rounded=0;orthogonalLoop=1;jettySize=auto;html=1;entryX=0;entryY=0.667;entryDx=0;entryDy=0;entryPerimeter=0;endArrow=none;endFill=0;" edge="1" parent="1">
          <mxGeometry relative="1" as="geometry">
            <mxPoint x="280" y="600" as="sourcePoint" />
            <mxPoint x="249.97" y="760.01" as="targetPoint" />
            <Array as="points">
              <mxPoint x="270" y="600" />
              <mxPoint x="270" y="630" />
              <mxPoint x="220" y="630" />
              <mxPoint x="220" y="760" />
            </Array>
          </mxGeometry>
        </mxCell>
        <mxCell id="IfxmSwvC24aHGd51J0QE-29" style="edgeStyle=orthogonalEdgeStyle;rounded=0;orthogonalLoop=1;jettySize=auto;html=1;exitX=0.5;exitY=0;exitDx=0;exitDy=0;exitPerimeter=0;endArrow=none;endFill=0;" edge="1" parent="1" source="IfxmSwvC24aHGd51J0QE-28" target="IfxmSwvC24aHGd51J0QE-9">
          <mxGeometry relative="1" as="geometry">
            <mxPoint x="250" y="760" as="targetPoint" />
            <Array as="points">
              <mxPoint x="412" y="790" />
              <mxPoint x="220" y="790" />
              <mxPoint x="220" y="760" />
            </Array>
          </mxGeometry>
        </mxCell>
        <mxCell id="IfxmSwvC24aHGd51J0QE-28" value="Warthog chasis" style="pointerEvents=1;verticalLabelPosition=bottom;shadow=0;dashed=0;align=center;html=1;verticalAlign=top;shape=mxgraph.electrical.signal_sources.protective_earth;" vertex="1" parent="1">
          <mxGeometry x="400" y="820" width="25" height="20" as="geometry" />
        </mxCell>
        <mxCell id="IfxmSwvC24aHGd51J0QE-31" value="LLC" style="whiteSpace=wrap;html=1;aspect=fixed;fillColor=#f5f5f5;fontColor=#333333;strokeColor=#666666;" vertex="1" parent="1">
          <mxGeometry x="415" y="520" width="80" height="80" as="geometry" />
        </mxCell>
        <mxCell id="IfxmSwvC24aHGd51J0QE-35" style="edgeStyle=orthogonalEdgeStyle;rounded=0;orthogonalLoop=1;jettySize=auto;html=1;exitX=0.25;exitY=1;exitDx=0;exitDy=0;entryX=0.75;entryY=1;entryDx=0;entryDy=0;endArrow=none;endFill=0;" edge="1" parent="1" source="IfxmSwvC24aHGd51J0QE-32" target="IfxmSwvC24aHGd51J0QE-16">
          <mxGeometry relative="1" as="geometry">
            <Array as="points">
              <mxPoint x="520" y="630" />
              <mxPoint x="310" y="630" />
              <mxPoint x="310" y="600" />
            </Array>
          </mxGeometry>
        </mxCell>
        <mxCell id="IfxmSwvC24aHGd51J0QE-98" style="edgeStyle=orthogonalEdgeStyle;rounded=0;orthogonalLoop=1;jettySize=auto;html=1;entryX=0;entryY=0.25;entryDx=0;entryDy=0;endArrow=none;endFill=0;strokeColor=light-dark(#CC0000,#CC0000);" edge="1" parent="1" source="IfxmSwvC24aHGd51J0QE-32" target="IfxmSwvC24aHGd51J0QE-33">
          <mxGeometry relative="1" as="geometry">
            <Array as="points">
              <mxPoint x="520" y="474" />
            </Array>
          </mxGeometry>
        </mxCell>
        <mxCell id="IfxmSwvC24aHGd51J0QE-32" value="&lt;font style=&quot;font-size: 10px;&quot;&gt;Charger&lt;/font&gt;" style="rounded=0;whiteSpace=wrap;html=1;fillColor=#fff2cc;strokeColor=#d6b656;" vertex="1" parent="1">
          <mxGeometry x="510" y="550" width="40" height="60" as="geometry" />
        </mxCell>
        <mxCell id="IfxmSwvC24aHGd51J0QE-81" style="edgeStyle=orthogonalEdgeStyle;rounded=0;orthogonalLoop=1;jettySize=auto;html=1;strokeColor=default;endArrow=none;endFill=0;entryX=0.182;entryY=0.013;entryDx=0;entryDy=0;entryPerimeter=0;" edge="1" parent="1" source="IfxmSwvC24aHGd51J0QE-33" target="IfxmSwvC24aHGd51J0QE-88">
          <mxGeometry relative="1" as="geometry">
            <mxPoint x="310" y="510" as="targetPoint" />
            <Array as="points">
              <mxPoint x="301" y="468" />
            </Array>
          </mxGeometry>
        </mxCell>
        <mxCell id="IfxmSwvC24aHGd51J0QE-33" value="" style="whiteSpace=wrap;html=1;aspect=fixed;direction=west;" vertex="1" parent="1">
          <mxGeometry x="400" y="455" width="25" height="25" as="geometry" />
        </mxCell>
        <mxCell id="IfxmSwvC24aHGd51J0QE-34" value="Rocker acces" style="text;strokeColor=none;fillColor=none;align=left;verticalAlign=middle;spacingLeft=4;spacingRight=4;overflow=hidden;points=[[0,0.5],[1,0.5]];portConstraint=eastwest;rotatable=0;whiteSpace=wrap;html=1;" vertex="1" parent="1">
          <mxGeometry x="370" y="425" width="125" height="30" as="geometry" />
        </mxCell>
        <mxCell id="IfxmSwvC24aHGd51J0QE-36" style="edgeStyle=orthogonalEdgeStyle;rounded=0;orthogonalLoop=1;jettySize=auto;html=1;endArrow=none;endFill=0;strokeColor=light-dark(#CC0000,#CC0000);" edge="1" parent="1" source="IfxmSwvC24aHGd51J0QE-32">
          <mxGeometry relative="1" as="geometry">
            <mxPoint x="300" y="600" as="targetPoint" />
            <Array as="points">
              <mxPoint x="512" y="640" />
              <mxPoint x="301" y="640" />
              <mxPoint x="301" y="600" />
            </Array>
          </mxGeometry>
        </mxCell>
        <mxCell id="IfxmSwvC24aHGd51J0QE-94" style="edgeStyle=orthogonalEdgeStyle;rounded=0;orthogonalLoop=1;jettySize=auto;html=1;exitX=0;exitY=0.5;exitDx=0;exitDy=0;exitPerimeter=0;entryX=0;entryY=0.5;entryDx=0;entryDy=0;endArrow=none;endFill=0;strokeColor=light-dark(#CC0000,#CC0000);" edge="1" parent="1" source="IfxmSwvC24aHGd51J0QE-38" target="IfxmSwvC24aHGd51J0QE-33">
          <mxGeometry relative="1" as="geometry" />
        </mxCell>
        <mxCell id="IfxmSwvC24aHGd51J0QE-38" value="&lt;font style=&quot;font-size: 6px;&quot;&gt;275 A&lt;/font&gt;" style="pointerEvents=1;verticalLabelPosition=bottom;shadow=0;dashed=0;align=center;html=1;verticalAlign=bottom;shape=mxgraph.electrical.miscellaneous.fuse_4;" vertex="1" parent="1">
          <mxGeometry x="520" y="462.5" width="40" height="10" as="geometry" />
        </mxCell>
        <mxCell id="IfxmSwvC24aHGd51J0QE-46" style="edgeStyle=orthogonalEdgeStyle;rounded=0;orthogonalLoop=1;jettySize=auto;html=1;endArrow=none;endFill=0;exitX=0;exitY=0.8;exitDx=0;exitDy=0;" edge="1" parent="1" source="IfxmSwvC24aHGd51J0QE-53">
          <mxGeometry relative="1" as="geometry">
            <mxPoint x="194" y="815" as="sourcePoint" />
            <mxPoint x="250" y="600" as="targetPoint" />
            <Array as="points">
              <mxPoint x="250" y="600" />
            </Array>
          </mxGeometry>
        </mxCell>
        <mxCell id="IfxmSwvC24aHGd51J0QE-45" value="" style="html=1;shape=mxgraph.electrical.electro-mechanical.singleSwitch;aspect=fixed;elSwitchState=off;rotation=-90;" vertex="1" parent="1">
          <mxGeometry x="172" y="810" width="37.5" height="10" as="geometry" />
        </mxCell>
        <mxCell id="IfxmSwvC24aHGd51J0QE-47" style="edgeStyle=orthogonalEdgeStyle;rounded=0;orthogonalLoop=1;jettySize=auto;html=1;exitX=1;exitY=0.8;exitDx=0;exitDy=0;endArrow=none;endFill=0;entryX=0.061;entryY=0.998;entryDx=0;entryDy=0;entryPerimeter=0;" edge="1" parent="1" source="IfxmSwvC24aHGd51J0QE-45" target="IfxmSwvC24aHGd51J0QE-16">
          <mxGeometry relative="1" as="geometry">
            <mxPoint x="245" y="601" as="targetPoint" />
            <Array as="points">
              <mxPoint x="194" y="613" />
              <mxPoint x="245" y="613" />
              <mxPoint x="245" y="601" />
            </Array>
          </mxGeometry>
        </mxCell>
        <mxCell id="IfxmSwvC24aHGd51J0QE-64" style="edgeStyle=orthogonalEdgeStyle;rounded=0;orthogonalLoop=1;jettySize=auto;html=1;exitX=0.25;exitY=1;exitDx=0;exitDy=0;entryX=1;entryY=1;entryDx=0;entryDy=0;jumpStyle=arc;endArrow=none;endFill=0;" edge="1" parent="1" source="IfxmSwvC24aHGd51J0QE-48" target="IfxmSwvC24aHGd51J0QE-57">
          <mxGeometry relative="1" as="geometry">
            <Array as="points">
              <mxPoint x="350" y="590" />
            </Array>
          </mxGeometry>
        </mxCell>
        <mxCell id="IfxmSwvC24aHGd51J0QE-66" style="edgeStyle=orthogonalEdgeStyle;rounded=0;orthogonalLoop=1;jettySize=auto;html=1;entryX=0.5;entryY=1;entryDx=0;entryDy=0;jumpStyle=arc;endArrow=none;endFill=0;" edge="1" parent="1" source="IfxmSwvC24aHGd51J0QE-48" target="IfxmSwvC24aHGd51J0QE-57">
          <mxGeometry relative="1" as="geometry">
            <Array as="points">
              <mxPoint x="363" y="628" />
              <mxPoint x="363" y="628" />
            </Array>
          </mxGeometry>
        </mxCell>
        <mxCell id="IfxmSwvC24aHGd51J0QE-68" style="edgeStyle=orthogonalEdgeStyle;rounded=0;orthogonalLoop=1;jettySize=auto;html=1;exitX=0.5;exitY=1;exitDx=0;exitDy=0;entryX=0.25;entryY=1;entryDx=0;entryDy=0;endArrow=none;endFill=0;" edge="1" parent="1" source="IfxmSwvC24aHGd51J0QE-48" target="IfxmSwvC24aHGd51J0QE-31">
          <mxGeometry relative="1" as="geometry">
            <Array as="points">
              <mxPoint x="363" y="590" />
              <mxPoint x="363" y="605" />
              <mxPoint x="435" y="605" />
            </Array>
          </mxGeometry>
        </mxCell>
        <mxCell id="IfxmSwvC24aHGd51J0QE-95" style="edgeStyle=orthogonalEdgeStyle;rounded=0;orthogonalLoop=1;jettySize=auto;html=1;entryX=1;entryY=0.25;entryDx=0;entryDy=0;endArrow=none;endFill=0;jumpStyle=arc;" edge="1" parent="1" source="IfxmSwvC24aHGd51J0QE-48" target="IfxmSwvC24aHGd51J0QE-33">
          <mxGeometry relative="1" as="geometry">
            <Array as="points">
              <mxPoint x="360" y="474" />
            </Array>
          </mxGeometry>
        </mxCell>
        <mxCell id="IfxmSwvC24aHGd51J0QE-48" value="Breakout" style="whiteSpace=wrap;html=1;aspect=fixed;fillColor=#d5e8d4;strokeColor=#82b366;" vertex="1" parent="1">
          <mxGeometry x="340" y="530" width="60" height="60" as="geometry" />
        </mxCell>
        <mxCell id="IfxmSwvC24aHGd51J0QE-49" style="edgeStyle=orthogonalEdgeStyle;rounded=0;orthogonalLoop=1;jettySize=auto;html=1;entryX=0;entryY=0;entryDx=0;entryDy=0;entryPerimeter=0;endArrow=none;endFill=0;strokeColor=light-dark(#CC0000,#CC0000);" edge="1" parent="1" source="IfxmSwvC24aHGd51J0QE-16" target="IfxmSwvC24aHGd51J0QE-13">
          <mxGeometry relative="1" as="geometry">
            <Array as="points">
              <mxPoint x="280" y="640" />
              <mxPoint x="230" y="640" />
              <mxPoint x="230" y="720" />
            </Array>
          </mxGeometry>
        </mxCell>
        <mxCell id="IfxmSwvC24aHGd51J0QE-50" value="&lt;div&gt;Main Switch&lt;/div&gt;" style="text;strokeColor=none;fillColor=none;align=left;verticalAlign=middle;spacingLeft=4;spacingRight=4;overflow=hidden;points=[[0,0.5],[1,0.5]];portConstraint=eastwest;rotatable=0;whiteSpace=wrap;html=1;" vertex="1" parent="1">
          <mxGeometry x="110" y="800" width="80" height="30" as="geometry" />
        </mxCell>
        <mxCell id="IfxmSwvC24aHGd51J0QE-51" value="" style="rounded=0;whiteSpace=wrap;html=1;fillColor=#878787;" vertex="1" parent="1">
          <mxGeometry x="298" y="600" width="15" height="20" as="geometry" />
        </mxCell>
        <mxCell id="IfxmSwvC24aHGd51J0QE-52" value="" style="rounded=0;whiteSpace=wrap;html=1;fillColor=#878787;" vertex="1" parent="1">
          <mxGeometry x="267" y="600" width="15" height="20" as="geometry" />
        </mxCell>
        <mxCell id="IfxmSwvC24aHGd51J0QE-54" value="" style="edgeStyle=orthogonalEdgeStyle;rounded=0;orthogonalLoop=1;jettySize=auto;html=1;endArrow=none;endFill=0;exitX=0;exitY=0.8;exitDx=0;exitDy=0;" edge="1" parent="1" source="IfxmSwvC24aHGd51J0QE-45" target="IfxmSwvC24aHGd51J0QE-53">
          <mxGeometry relative="1" as="geometry">
            <mxPoint x="194" y="834" as="sourcePoint" />
            <mxPoint x="250" y="600" as="targetPoint" />
            <Array as="points">
              <mxPoint x="200" y="834" />
              <mxPoint x="200" y="620" />
              <mxPoint x="250" y="620" />
            </Array>
          </mxGeometry>
        </mxCell>
        <mxCell id="IfxmSwvC24aHGd51J0QE-53" value="" style="rounded=0;whiteSpace=wrap;html=1;fillColor=#878787;" vertex="1" parent="1">
          <mxGeometry x="240" y="600" width="15" height="10" as="geometry" />
        </mxCell>
        <mxCell id="IfxmSwvC24aHGd51J0QE-55" style="edgeStyle=orthogonalEdgeStyle;rounded=0;orthogonalLoop=1;jettySize=auto;html=1;exitX=1;exitY=0.25;exitDx=0;exitDy=0;entryX=0.011;entryY=0.174;entryDx=0;entryDy=0;entryPerimeter=0;endArrow=none;endFill=0;" edge="1" parent="1" source="IfxmSwvC24aHGd51J0QE-16" target="IfxmSwvC24aHGd51J0QE-48">
          <mxGeometry relative="1" as="geometry" />
        </mxCell>
        <mxCell id="IfxmSwvC24aHGd51J0QE-56" style="edgeStyle=orthogonalEdgeStyle;rounded=0;orthogonalLoop=1;jettySize=auto;html=1;entryX=0.002;entryY=0.073;entryDx=0;entryDy=0;entryPerimeter=0;strokeColor=light-dark(#CC0000,#CC0000);endArrow=none;endFill=0;exitX=0.993;exitY=0.183;exitDx=0;exitDy=0;exitPerimeter=0;" edge="1" parent="1" source="IfxmSwvC24aHGd51J0QE-16" target="IfxmSwvC24aHGd51J0QE-48">
          <mxGeometry relative="1" as="geometry">
            <mxPoint x="320" y="540" as="sourcePoint" />
            <Array as="points" />
          </mxGeometry>
        </mxCell>
        <mxCell id="IfxmSwvC24aHGd51J0QE-69" style="edgeStyle=orthogonalEdgeStyle;rounded=0;orthogonalLoop=1;jettySize=auto;html=1;exitX=0.25;exitY=1;exitDx=0;exitDy=0;entryX=0.5;entryY=1;entryDx=0;entryDy=0;jumpStyle=arc;endArrow=none;endFill=0;strokeColor=#66B2FF;" edge="1" parent="1" source="IfxmSwvC24aHGd51J0QE-57" target="IfxmSwvC24aHGd51J0QE-31">
          <mxGeometry relative="1" as="geometry">
            <Array as="points">
              <mxPoint x="369" y="650" />
              <mxPoint x="455" y="650" />
            </Array>
          </mxGeometry>
        </mxCell>
        <mxCell id="IfxmSwvC24aHGd51J0QE-57" value="" style="whiteSpace=wrap;html=1;aspect=fixed;direction=west;" vertex="1" parent="1">
          <mxGeometry x="350" y="665" width="25" height="25" as="geometry" />
        </mxCell>
        <mxCell id="IfxmSwvC24aHGd51J0QE-58" value="&lt;div&gt;Outside I/O&lt;/div&gt;" style="text;strokeColor=none;fillColor=none;align=left;verticalAlign=middle;spacingLeft=4;spacingRight=4;overflow=hidden;points=[[0,0.5],[1,0.5]];portConstraint=eastwest;rotatable=0;whiteSpace=wrap;html=1;" vertex="1" parent="1">
          <mxGeometry x="330" y="680" width="125" height="30" as="geometry" />
        </mxCell>
        <mxCell id="IfxmSwvC24aHGd51J0QE-84" value="&lt;div&gt;&lt;font style=&quot;font-size: 6px;&quot;&gt;48v&lt;/font&gt;&lt;/div&gt;" style="text;whiteSpace=wrap;html=1;" vertex="1" parent="1">
          <mxGeometry x="340" y="570" width="40" height="40" as="geometry" />
        </mxCell>
        <mxCell id="IfxmSwvC24aHGd51J0QE-85" value="&lt;font style=&quot;font-size: 6px;&quot;&gt;24v&lt;/font&gt;" style="text;whiteSpace=wrap;html=1;" vertex="1" parent="1">
          <mxGeometry x="360" y="570" width="40" height="40" as="geometry" />
        </mxCell>
        <mxCell id="IfxmSwvC24aHGd51J0QE-87" style="edgeStyle=orthogonalEdgeStyle;rounded=0;orthogonalLoop=1;jettySize=auto;html=1;exitX=0.75;exitY=1;exitDx=0;exitDy=0;entryX=0.358;entryY=-0.075;entryDx=0;entryDy=0;entryPerimeter=0;jumpStyle=arc;endArrow=none;endFill=0;" edge="1" parent="1" source="IfxmSwvC24aHGd51J0QE-31" target="IfxmSwvC24aHGd51J0QE-58">
          <mxGeometry relative="1" as="geometry">
            <Array as="points">
              <mxPoint x="485" y="600" />
              <mxPoint x="485" y="678" />
            </Array>
          </mxGeometry>
        </mxCell>
        <mxCell id="IfxmSwvC24aHGd51J0QE-88" value="&lt;font style=&quot;font-size: 6px;&quot;&gt;CAN bus&lt;/font&gt;" style="text;whiteSpace=wrap;html=1;" vertex="1" parent="1">
          <mxGeometry x="290" y="510" width="60" height="40" as="geometry" />
        </mxCell>
        <mxCell id="IfxmSwvC24aHGd51J0QE-89" value="&lt;font style=&quot;font-size: 6px;&quot;&gt;USB&lt;/font&gt;" style="text;whiteSpace=wrap;html=1;" vertex="1" parent="1">
          <mxGeometry x="477" y="578" width="60" height="40" as="geometry" />
        </mxCell>
        <mxCell id="IfxmSwvC24aHGd51J0QE-90" value="&lt;font style=&quot;font-size: 6px;&quot;&gt;Ethernet&lt;/font&gt;" style="text;whiteSpace=wrap;html=1;" vertex="1" parent="1">
          <mxGeometry x="446" y="578" width="60" height="40" as="geometry" />
        </mxCell>
        <mxCell id="IfxmSwvC24aHGd51J0QE-91" value="&lt;font style=&quot;font-size: 6px;&quot;&gt;CAN bus&lt;/font&gt;" style="text;whiteSpace=wrap;html=1;" vertex="1" parent="1">
          <mxGeometry x="446" y="510" width="60" height="40" as="geometry" />
        </mxCell>
        <mxCell id="IfxmSwvC24aHGd51J0QE-96" value="&lt;font style=&quot;font-size: 6px;&quot;&gt;DATA&lt;/font&gt;*" style="text;whiteSpace=wrap;html=1;" vertex="1" parent="1">
          <mxGeometry x="350" y="520" width="60" height="40" as="geometry" />
        </mxCell>
        <mxCell id="IfxmSwvC24aHGd51J0QE-97" style="edgeStyle=orthogonalEdgeStyle;rounded=0;orthogonalLoop=1;jettySize=auto;html=1;exitX=1;exitY=0.25;exitDx=0;exitDy=0;entryX=0.566;entryY=0.006;entryDx=0;entryDy=0;entryPerimeter=0;endArrow=none;endFill=0;" edge="1" parent="1" source="IfxmSwvC24aHGd51J0QE-33" target="IfxmSwvC24aHGd51J0QE-31">
          <mxGeometry relative="1" as="geometry">
            <Array as="points">
              <mxPoint x="360" y="474" />
              <mxPoint x="360" y="500" />
              <mxPoint x="460" y="500" />
            </Array>
          </mxGeometry>
        </mxCell>
        <mxCell id="IfxmSwvC24aHGd51J0QE-100" value="&lt;font style=&quot;font-size: 6px;&quot;&gt;120 V~&lt;span style=&quot;white-space: pre;&quot;&gt;&#x9;&lt;/span&gt;&lt;/font&gt;" style="text;whiteSpace=wrap;html=1;" vertex="1" parent="1">
          <mxGeometry x="510" y="538" width="60" height="40" as="geometry" />
        </mxCell>
        <mxCell id="IfxmSwvC24aHGd51J0QE-102" value="" style="rounded=0;whiteSpace=wrap;html=1;" vertex="1" parent="1">
          <mxGeometry x="379" y="532" width="20" height="10" as="geometry" />
        </mxCell>
        <mxCell id="IfxmSwvC24aHGd51J0QE-101" value="&lt;font style=&quot;font-size: 6px;&quot;&gt;MCU&lt;/font&gt;" style="text;whiteSpace=wrap;html=1;" vertex="1" parent="1">
          <mxGeometry x="380" y="520" width="60" height="40" as="geometry" />
        </mxCell>
        <mxCell id="IfxmSwvC24aHGd51J0QE-103" style="edgeStyle=orthogonalEdgeStyle;rounded=0;orthogonalLoop=1;jettySize=auto;html=1;endArrow=none;endFill=0;" edge="1" parent="1" source="IfxmSwvC24aHGd51J0QE-102">
          <mxGeometry relative="1" as="geometry">
            <mxPoint x="420" y="537" as="targetPoint" />
            <Array as="points">
              <mxPoint x="414" y="537" />
            </Array>
          </mxGeometry>
        </mxCell>
        <mxCell id="IfxmSwvC24aHGd51J0QE-104" value="&lt;font style=&quot;font-size: 6px;&quot;&gt;Sevcon&lt;/font&gt;" style="text;whiteSpace=wrap;html=1;" vertex="1" parent="1">
          <mxGeometry x="465" y="446" width="60" height="40" as="geometry" />
        </mxCell>
        <mxCell id="IfxmSwvC24aHGd51J0QE-105" value="&lt;div&gt;com&lt;/div&gt;" style="text;strokeColor=none;fillColor=none;align=left;verticalAlign=middle;spacingLeft=4;spacingRight=4;overflow=hidden;points=[[0,0.5],[1,0.5]];portConstraint=eastwest;rotatable=0;whiteSpace=wrap;html=1;" vertex="1" parent="1">
          <mxGeometry x="520" y="373" width="80" height="30" as="geometry" />
        </mxCell>
      </root>
    </mxGraphModel>
  </diagram>
  <diagram id="LpiWNxyVe2_hM96SpLML" name="Page-2">
    <mxGraphModel dx="1195" dy="907" grid="0" gridSize="10" guides="1" tooltips="1" connect="1" arrows="1" fold="1" page="0" pageScale="1" pageWidth="850" pageHeight="1100" math="0" shadow="0">
      <root>
        <mxCell id="0" />
        <mxCell id="1" parent="0" />
      </root>
    </mxGraphModel>
  </diagram>
</mxfile>
